<svg width="31" height="31" viewBox="0 0 31 31" fill="none" xmlns="http://www.w3.org/2000/svg">
<path d="M21.93 4.36748C11.5921 -2.51585 3.5 7 1.25426 12.9717C-0.0379766 18.0704 3.83873 23.4879 7.39237 27.6306C10.946 31.7733 18.07 28.776 21.5 28C24.0208 27.4297 27.5297 22.6381 28.7142 19.3451C30.3191 14.8837 32.2679 11.2508 21.93 4.36748Z" stroke="white"/>
<path d="M19.6799 3.87057C9.73299 -2.9884 7.24625 3.87058 4.75951 9.58638C3.51614 14.6671 3.51614 18.7952 6.93541 22.9233C10.3547 27.0513 18.7474 29.5917 21.168 26.8701C22.8402 24.9899 26.5559 20.3075 27.6957 17.0262C29.2398 12.5806 24.6534 7.30005 19.6799 3.87057Z" stroke="white"/>
</svg>
