<svg width="39" height="28" viewBox="0 0 39 28" fill="none" xmlns="http://www.w3.org/2000/svg">
<path d="M0.198509 0.818181H6.39879L12.369 12.0938H12.6246L18.5948 0.818181H24.7951L15.2454 17.7443V27H9.74823V17.7443L0.198509 0.818181Z" fill="white"/>
<path d="M31.7779 9.32349C31.6039 8.71861 31.3595 8.18416 31.0446 7.72015C30.7297 7.24785 30.3444 6.85012 29.8887 6.52697C29.4413 6.19553 28.9275 5.9428 28.3475 5.7688C27.7758 5.59479 27.1419 5.50779 26.4459 5.50779C25.145 5.50779 24.0015 5.83094 23.0155 6.47725C22.0377 7.12356 21.2754 8.06402 20.7286 9.29863C20.1817 10.525 19.9082 12.0247 19.9082 13.7979C19.9082 15.5711 20.1775 17.0792 20.7161 18.3221C21.2547 19.565 22.017 20.5137 23.0031 21.1683C23.9891 21.8146 25.1533 22.1378 26.4956 22.1378C27.7136 22.1378 28.7535 21.9223 29.6153 21.4915C30.4853 21.0523 31.1482 20.435 31.6039 19.6395C32.0679 18.8441 32.2999 17.9036 32.2999 16.8182L33.3937 16.9797H26.8312V12.9279H37.4828V16.1346C37.4828 18.3718 37.0105 20.2941 36.0659 21.9016C35.1213 23.5008 33.8204 24.7354 32.1632 25.6054C30.506 26.4672 28.6085 26.8981 26.4707 26.8981C24.0844 26.8981 21.988 26.3719 20.1817 25.3196C18.3753 24.259 16.9667 22.7551 15.9558 20.8079C14.9532 18.8524 14.4519 16.5323 14.4519 13.8476C14.4519 11.7844 14.7502 9.94493 15.3468 8.32917C15.9517 6.70511 16.7969 5.32964 17.8823 4.20275C18.9678 3.07585 20.2314 2.21825 21.6732 1.62995C23.1149 1.04164 24.6768 0.747491 26.3589 0.747491C27.8006 0.747491 29.143 0.958784 30.3859 1.38137C31.6288 1.79567 32.7308 2.38397 33.692 3.14628C34.6614 3.90859 35.4528 4.81591 36.0659 5.86823C36.6791 6.91226 37.0727 8.06402 37.2467 9.32349H31.7779Z" fill="white"/>
</svg>
